@startuml Space 

class Alien 

class Barrera 
class Proyectil
class Vida 
class Juego 
class Puntuacion 
class Nivel 
class Cañon {
    *MoverDerecha()
    *MoverIzquierda()
    *Disparar()
}
Juego "1" *-- "*" Nivel
Nivel "1" *-- "10..20" Alien 
Nivel "1" *-- "4" Barrera 
Nivel "1" *-- "1" Cañon 

Jugador"1" o-- "1" Cañon 
Jugador "1" *-- "3" Vida 
Jugador "1" *-- "1" Puntuacion 





@enduml